{"title":"The Amazing Spider-Man 2 (2014) DVDScr Dual Audio (Eng-Hindi Cam","uid":10149105,"size":1027800440,"categoryP":"video","categoryS":"movies","magnet":"?xt=urn:btih:c2dea9db2bedef29847e06dcae18861d1e4f57a6&amp;dn=The+Amazing+Spider-Man+2+%282014%29+DVDScr+Dual+Audio+%28Eng-Hindi+Cam&amp;tr=udp%3A%2F%2Ftracker.openbittorrent.com%3A80&amp;tr=udp%3A%2F%2Fopen.demonii.com%3A1337&amp;tr=udp%3A%2F%2Ftracker.coppersurfer.tk%3A6969&amp;tr=udp%3A%2F%2Fexodus.desync.com%3A6969","seeders":3,"leechers":0,"uploader":"olddilli","files":4,"time":1400082980,"description":"ScreenShots:\n\n &lt;a href=&quot;\nhttp://i916.photobucket.com/albums/ad10/olddilli/TheAmazingSpider-Man22014DVDScrDualAudioEng-HindiCamAudioH264AACBySammkv_zps70058a4f.jpg&quot; rel=&quot;nofollow&quot; target=&quot;_NEW&quot;&gt;\nhttp://i916.photobucket.com/albums/ad10/olddilli/TheAmazingSpider-Man22014DVDScrDualAudioEng-HindiCamAudioH264AACBySammkv_zps70058a4f.jpg&lt;/a&gt;\n\n\n\nInfo:\n\n\nFormat                                   : Matroska\nFormat version                           : Version 2\nFile size                                : 972 MiB\nDuration                                 : 2h 16mn\nOverall bit rate                         : 994 Kbps\nWriting application                      : Lavf55.7.100\nWriting library                          : Lavf55.7.100\nLABEL                                    : Chapter 1\nTCHAPTER                                 : 105282816\nLanguage                                 : eng\n\nVideo\nID                                       : 1\nFormat                                   : AVC\nFormat/Info                              : Advanced Video Codec\nFormat profile                           : &lt;a class=&quot;__cf_email__&quot; href=&quot;/cdn-cgi/l/email-protection&quot; data-cfemail=&quot;622a0b050a222e564c53&quot;&gt;[email&amp;#160;protected]&lt;/a&gt;&lt;script cf-hash='f9e31' type=&quot;text/javascript&quot;&gt;\n/* &lt;![CDATA[ */!function(){try{var t=&quot;currentScript&quot;in document?document.currentScript:function(){for(var t=document.getElementsByTagName(&quot;script&quot;),e=t.length;e--;)if(t[e].getAttribute(&quot;cf-hash&quot;))return t[e]}();if(t&amp;&amp;t.previousSibling){var e,r,n,i,c=t.previousSibling,a=c.getAttribute(&quot;data-cfemail&quot;);if(a){for(e=&quot;&quot;,r=parseInt(a.substr(0,2),16),n=2;a.length-n;n+=2)i=parseInt(a.substr(n,2),16)^r,e+=String.fromCharCode(i);e=document.createTextNode(e),c.parentNode.replaceChild(e,c)}}}catch(u){}}();/* ]]&gt; */&lt;/script&gt;\nFormat settings, CABAC                   : Yes\nFormat settings, ReFrames                : 3 frames\nCodec ID                                 : V_MPEG4/ISO/AVC\nDuration                                 : 2h 16mn\nBit rate                                 : 654 Kbps\nWidth                                    : 640 pixels\nHeight                                   : 360 pixels\nDisplay aspect ratio                     : 2.108\nOriginal display aspect ratio            : 2.107\nFrame rate mode                          : Constant\nFrame rate                               : 30.000 fps\nColor space                              : YUV\nChroma subsampling                       : 4:2:0\nBit depth                                : 8 bits\nScan type                                : Progressive\nBits/(Pixel*Frame)                       : 0.095\nStream size                              : 640 MiB (66%)\nLanguage                                 : Unspecified\nDefault                                  : Yes\nForced                                   : No\nPART_NUMBER                              : 0\n\nAudio #1\nID                                       : 2\nFormat                                   : MPEG Audio\nFormat version                           : Version 2\nFormat profile                           : Layer 3\nMode                                     : Joint stereo\nMode extension                           : MS Stereo\nCodec ID                                 : A_MPEG/L3\nCodec ID/Hint                            : MP3\nDuration                                 : 2h 16mn\nBit rate mode                            : Constant\nBit rate                                 : 160 Kbps\nChannel count                            : 2 channels\nSampling rate                            : 22.05 KHz\nCompression mode                         : Lossy\nStream size                              : 157 MiB (16%)\nWriting library                          : LAME3.99.5\nLanguage                                 : English\nDefault                                  : Yes\nForced                                   : No\nPART_NUMBER                              : 1\n\nAudio #2\nID                                       : 3\nFormat                                   : MPEG Audio\nFormat version                           : Version 2\nFormat profile                           : Layer 3\nMode                                     : Joint stereo\nCodec ID                                 : A_MPEG/L3\nCodec ID/Hint                            : MP3\nDuration                                 : 2h 16mn\nBit rate mode                            : Constant\nBit rate                                 : 160 Kbps\nChannel count                            : 2 channels\nSampling rate                            : 22.05 KHz\nCompression mode                         : Lossy\nStream size                              : 157 MiB (16%)\nWriting library                          : LAME3.99.5\nLanguage                                 : Hindi\nDefault                                  : Yes\nForced                                   : No\nPART_NUMBER                              : 2\n\nMenu\n00:00:00.000                             : :Chapter 1\n\n","torrent":{"xt":"urn:btih:c2dea9db2bedef29847e06dcae18861d1e4f57a6","amp;dn":"The+Amazing+Spider-Man+2+%282014%29+DVDScr+Dual+Audio+%28Eng-Hindi+Cam","amp;tr":["udp%3A%2F%2Ftracker.openbittorrent.com%3A80","udp%3A%2F%2Fopen.demonii.com%3A1337","udp%3A%2F%2Ftracker.coppersurfer.tk%3A6969","udp%3A%2F%2Fexodus.desync.com%3A6969"],"infoHash":"c2dea9db2bedef29847e06dcae18861d1e4f57a6","infoHashBuffer":{"type":"Buffer","data":[194,222,169,219,43,237,239,41,132,126,6,220,174,24,134,29,30,79,87,166]},"announce":[],"urlList":[]}}